:SAMPLES-PER-SECOND 30
:FULLY-SPECIFIED
:DEGREES
17
root  3.00027 40.8889 -1.2875 -178.244 -86.4316 177.592
RightUpLeg  -1.1959 -8.50165 -6.01849
RightLeg  5.83301 -3.23026 3.28859
RightFoot  -2.321 -0.00690836 -0.115273
RightToes  0.000482159 0.542163 -0.142577
Spine  3.49564 -0.133932 -1.65363
Spine1  -5.79398 -0.423171 2.44571
HEad  7.35396 3.61975 0.271251
LeftShoulder1  0.568806 -0.862382 -5.11449
LeftArm  -21.7055 13.1785 -10.5721
LeftForeArm  -2.03085 0.244801 0.166868
LeftHand  -0.25398 0.0180481 5.50724
RightShoulder  0.311034 -1.07483 4.97149
RightArm  -20.49 -1.08575 2.38916
RightForeArm  1.66065 0.236795 2.75429
RightHand  -1.3019 3.3169 -17.5369
LeftUpLeg  -0.140267 4.6893 1.58761
LeftLeg  5.76258 10.1386 -2.45091
LeftFoot  -5.3093 -0.0461822 1.44937
LeftToes  1.06245e-005 4.65856e-005 -8.18503e-006
18
root  2.93439 40.8949 -1.20485 -177.034 -86.5843 176.589
RightUpLeg  -1.22163 -8.59997 -6.21544
RightLeg  5.6743 -3.2838 3.29684
RightFoot  -2.29279 -0.0210642 0.0701943
RightToes  0.000482159 0.542163 -0.142577
Spine  3.40504 -0.212215 -1.70938
Spine1  -5.79092 -0.511045 2.5191
HEad  7.70925 3.38919 0.4347
LeftShoulder1  0.575522 -0.9817 -4.897
LeftArm  -21.8914 13.2693 -10.5549
LeftForeArm  -1.79178 0.227227 0.267549
LeftHand  -0.25398 0.0180481 5.50724
RightShoulder  0.305149 -1.11978 4.965
RightArm  -20.5316 -1.22317 2.13486
RightForeArm  1.63223 0.188743 2.72022
RightHand  -1.31768 3.44341 -17.5013
LeftUpLeg  -0.154463 4.51988 1.41001
LeftLeg  5.46072 10.2204 -2.60007
LeftFoot  -5.14538 -0.0616831 1.68445
LeftToes  1.06245e-005 4.65856e-005 -8.18503e-006
19
root  2.86503 40.9 -1.1262 -176.147 -86.6213 175.929
RightUpLeg  -1.29475 -8.66886 -6.37234
RightLeg  5.53368 -3.25319 3.30324
RightFoot  -2.24406 -0.0309351 0.195359
RightToes  0.000482159 0.542163 -0.142577
Spine  3.30795 -0.303206 -1.82167
Spine1  -5.81406 -0.621182 2.66279
HEad  8.14518 3.32001 0.576868
LeftShoulder1  0.545234 -0.850931 -4.54373
LeftArm  -22.2057 13.3791 -10.7455
LeftForeArm  -1.41497 0.190182 0.411609
LeftHand  -0.25398 0.0180481 5.50724
RightShoulder  0.305962 -1.10095 4.89076
RightArm  -20.6064 -1.2119 2.03702
RightForeArm  1.61245 0.147218 2.68988
RightHand  -1.31367 3.41661 -17.5005
LeftUpLeg  -0.172117 4.39987 1.27448
LeftLeg  5.16875 10.341 -2.76636
LeftFoot  -5.04039 -0.074365 1.87509
LeftToes  1.06245e-005 4.65856e-005 -8.18503e-006
20
root  2.7904 40.907 -1.05321 -175.927 -86.5792 175.904
RightUpLeg  -1.33042 -8.67213 -6.4636
RightLeg  5.37279 -3.18416 3.27164
RightFoot  -2.1411 -0.0378272 0.279882
RightToes  0.000482159 0.542163 -0.142577
Spine  3.23824 -0.386123 -1.85797
Spine1  -5.87225 -0.714784 2.75124
HEad  8.72462 3.18665 0.634558
LeftShoulder1  0.500339 -0.596201 -4.18459
LeftArm  -22.1768 13.4537 -10.9494
LeftForeArm  -1.39758 0.125715 0.380343
LeftHand  -0.25398 0.0180481 5.50724
RightShoulder  0.304124 -1.08322 4.69929
RightArm  -20.757 -1.15271 2.19313
RightForeArm  1.51515 0.121217 2.64557
RightHand  -1.29007 3.22114 -17.5657
LeftUpLeg  -0.115544 4.33299 1.20894
LeftLeg  4.84569 10.481 -2.95872
LeftFoot  -4.9567 -0.0801006 1.95833
LeftToes  1.06245e-005 4.65856e-005 -8.18503e-006
21
root  2.70993 40.9176 -0.987606 -176.068 -86.5201 176.21
RightUpLeg  -1.28158 -8.64078 -6.51876
RightLeg  5.11732 -3.13447 3.22657
RightFoot  -2.00851 -0.0458665 0.385605
RightToes  0.000482159 0.542163 -0.142577
Spine  3.1285 -0.413761 -1.79231
Spine1  -5.90739 -0.740836 2.75372
HEad  9.35227 2.93702 0.656005
LeftShoulder1  0.490958 -0.53725 -4.1199
LeftArm  -21.8842 13.475 -10.8442
LeftForeArm  -1.63072 0.0950176 0.248441
LeftHand  -0.25398 0.0180481 5.50724
RightShoulder  0.289696 -1.15861 4.45996
RightArm  -20.9139 -1.15879 2.47958
RightForeArm  1.51634 0.157025 2.59858
RightHand  -1.28797 3.16671 -17.6436
LeftUpLeg  0.0124165 4.27322 1.17561
LeftLeg  4.46744 10.632 -3.1546
LeftFoot  -4.85684 -0.0844129 2.02124
LeftToes  1.06245e-005 4.65856e-005 -8.18503e-006
22
root  2.62746 40.9291 -0.931156 -176.227 -86.427 176.529
RightUpLeg  -1.19185 -8.62147 -6.57461
RightLeg  4.79191 -3.07015 3.21312
RightFoot  -1.88839 -0.0553286 0.515613
RightToes  0.000482159 0.542163 -0.142577
Spine  2.89504 -0.381667 -1.75404
Spine1  -5.80278 -0.714376 2.79364
HEad  9.92095 2.78647 0.68959
LeftShoulder1  0.51717 -0.664839 -4.41239
LeftArm  -21.7748 13.4487 -10.4701
LeftForeArm  -1.71422 0.0556171 0.215103
LeftHand  -0.25398 0.0180481 5.50724
RightShoulder  0.269709 -1.29584 4.30541
RightArm  -21.0609 -1.14225 2.71601
RightForeArm  1.70928 0.223455 2.5578
RightHand  -1.30938 3.33216 -17.6053
LeftUpLeg  0.146871 4.20786 1.13532
LeftLeg  4.10367 10.7992 -3.3162
LeftFoot  -4.76778 -0.0894693 2.09874
LeftToes  1.06245e-005 4.65856e-005 -8.18503e-006
23
root  2.54844 40.9374 -0.8817 -176.614 -86.2681 177.037
RightUpLeg  -1.09341 -8.61929 -6.6264
RightLeg  4.5066 -2.9361 3.23257
RightFoot  -1.78984 -0.0617973 0.60017
RightToes  0.000482159 0.542163 -0.142577
Spine  2.62724 -0.346527 -1.77103
Spine1  -5.57418 -0.695185 2.88311
HEad  10.4468 2.82526 0.741097
LeftShoulder1  0.523023 -0.636414 -4.66528
LeftArm  -21.8751 13.3657 -10.3123
LeftForeArm  -1.80716 -0.0670352 0.233127
LeftHand  -0.25398 0.0180481 5.50724
RightShoulder  0.261234 -1.36398 4.2964
RightArm  -21.1305 -0.993987 2.84759
RightForeArm  1.82856 0.241167 2.5564
RightHand  -1.30532 3.38234 -17.4566
LeftUpLeg  0.268394 4.1742 1.10113
LeftLeg  3.86061 10.9716 -3.42035
LeftFoot  -4.73625 -0.0930175 2.15702
LeftToes  1.06245e-005 4.65856e-005 -8.18503e-006
24
root  2.47555 40.9403 -0.837013 -177.497 -86.0801 177.954
RightUpLeg  -0.963438 -8.60793 -6.64791
RightLeg  4.32594 -2.76548 3.2462
RightFoot  -1.72635 -0.0640755 0.619414
RightToes  0.000482159 0.542163 -0.142577
Spine  2.52426 -0.340356 -1.74239
Spine1  -5.41867 -0.696142 2.89954
HEad  10.9746 2.83077 0.830357
LeftShoulder1  0.481854 -0.345584 -4.52244
LeftArm  -21.8749 13.2496 -10.6816
LeftForeArm  -2.29386 -0.194175 0.148664
LeftHand  -0.25398 0.0180481 5.50724
RightShoulder  0.270856 -1.30087 4.3942
RightArm  -21.0176 -0.825982 2.90373
RightForeArm  1.66107 0.223831 2.62277
RightHand  -1.27466 3.20374 -17.396
LeftUpLeg  0.406193 4.20709 1.10729
LeftLeg  3.77398 11.11 -3.48097
LeftFoot  -4.77614 -0.0980015 2.24307
LeftToes  1.06245e-005 4.65856e-005 -8.18503e-006
25
root  2.40848 40.9382 -0.800114 -178.363 -85.9236 178.803
RightUpLeg  -0.832285 -8.58714 -6.65604
RightLeg  4.25016 -2.61656 3.23307
RightFoot  -1.73522 -0.0669413 0.645057
RightToes  0.000482159 0.542163 -0.142577
Spine  2.60016 -0.323802 -1.68913
Spine1  -5.44577 -0.675148 2.85142
HEad  11.4454 2.62579 0.96861
LeftShoulder1  0.44354 -0.120526 -4.20603
LeftArm  -21.7907 13.1797 -11.2453
LeftForeArm  -2.89258 -0.172081 0.045709
LeftHand  -0.25398 0.0180481 5.50724
RightShoulder  0.286127 -1.2014 4.54447
RightArm  -20.8411 -0.792672 2.89862
RightForeArm  1.48106 0.241994 2.69553
RightHand  -1.27433 3.14424 -17.5058
LeftUpLeg  0.543638 4.27248 1.12699
LeftLeg  3.7819 11.202 -3.5195
LeftFoot  -4.86447 -0.107083 2.39939
LeftToes  1.06245e-005 4.65856e-005 -8.18503e-006
26
root  2.34531 40.934 -0.772985 -178.266 -85.8221 178.716
RightUpLeg  -0.781826 -8.6121 -6.72396
RightLeg  4.2904 -2.4652 3.22109
RightFoot  -1.81696 -0.0724837 0.71022
RightToes  0.000482159 0.542163 -0.142577
Spine  2.66156 -0.270006 -1.73946
Spine1  -5.50793 -0.619628 2.8478
HEad  11.7504 2.33503 1.11024
LeftShoulder1  0.453175 -0.215227 -4.14752
LeftArm  -21.8676 13.1861 -11.4928
LeftForeArm  -2.98835 -0.0169272 0.0894896
LeftHand  -0.25398 0.0180481 5.50724
RightShoulder  0.289279 -1.20821 4.74207
RightArm  -20.8417 -0.811059 2.83914
RightForeArm  1.60872 0.271819 2.68874
RightHand  -1.31468 3.36636 -17.609
LeftUpLeg  0.648788 4.26708 1.07079
LeftLeg  3.76645 11.305 -3.53173
LeftFoot  -4.94722 -0.113545 2.52064
LeftToes  1.06245e-005 4.65856e-005 -8.18503e-006
27
root  2.28336 40.9308 -0.74968 -177.066 -85.7924 177.546
RightUpLeg  -0.779945 -8.73337 -6.89798
RightLeg  4.42323 -2.28276 3.25317
RightFoot  -1.92954 -0.0774842 0.766786
RightToes  0.000482159 0.542163 -0.142577
Spine  2.62364 -0.237653 -1.85145
Spine1  -5.43944 -0.581043 2.81392
HEad  11.8577 2.13631 1.21687
LeftShoulder1  0.48644 -0.446721 -4.30122
LeftArm  -22.0079 13.2064 -11.43
LeftForeArm  -2.7054 0.0779826 0.184026
LeftHand  -0.25398 0.0180481 5.50724
RightShoulder  0.27896 -1.3303 5.00374
RightArm  -20.9597 -0.726371 2.74744
RightForeArm  1.78356 0.248036 2.647
RightHand  -1.34018 3.545 -17.5987
LeftUpLeg  0.767613 4.13754 0.903249
LeftLeg  3.64392 11.4548 -3.51111
LeftFoot  -4.98198 -0.111544 2.51886
LeftToes  1.06245e-005 4.65856e-005 -8.18503e-006
